<svg xmlns="http://www.w3.org/2000/svg" aria-hidden="true" style="width:0;height:0;position:absolute;overflow:hidden"><defs><symbol id="icon-gridicons_search" viewBox="0 0 32 32"><path d="m28 25.333-6.872-6.872a9.337 9.337 0 0 0-1.901-12.366 9.337 9.337 0 0 0-12.495.636 9.332 9.332 0 0 0 11.73 14.396l6.872 6.872 2.667-2.667zm-21.333-12c0-3.676 2.991-6.667 6.667-6.667s6.667 2.991 6.667 6.667c0 3.676-2.991 6.667-6.667 6.667s-6.667-2.991-6.667-6.667z"/></symbol><symbol id="icon-Icon_facebook" viewBox="0 0 32 32"><path d="M2.909 0A2.93 2.93 0 0 0 0 2.909v26.182A2.93 2.93 0 0 0 2.909 32h26.182A2.93 2.93 0 0 0 32 29.091V2.909A2.93 2.93 0 0 0 29.091 0H2.909zm0 2.909h26.182v26.182h-7.546v-9.818h3.773l.545-4.364h-4.317V12.09c0-1.271.311-2.135 2.135-2.135h2.364V6c-.403-.051-1.801-.137-3.408-.137-3.353 0-5.636 2.017-5.636 5.773v3.273h-3.818v4.364H17v9.818H2.91V2.909z"/></symbol><symbol id="icon-Icon_instagram" viewBox="0 0 32 32"><path d="M9.409 0C4.244 0 0 4.239 0 9.409V22.59C0 27.755 4.239 32 9.409 32H22.59c5.165 0 9.41-4.239 9.41-9.41V9.41c0-5.167-4.239-9.411-9.41-9.411H9.409zm0 2.909H22.59a6.498 6.498 0 0 1 4.599 1.901c.604.604 1.082 1.321 1.409 2.11s.494 1.635.492 2.489V22.59a6.498 6.498 0 0 1-1.901 4.599c-.604.604-1.321 1.082-2.11 1.409s-1.635.494-2.489.492H9.41a6.498 6.498 0 0 1-4.6-1.901 6.489 6.489 0 0 1-1.902-4.599V9.41a6.498 6.498 0 0 1 1.901-4.6 6.489 6.489 0 0 1 4.599-1.902zM24.59 6.092a1.306 1.306 0 0 0-.933.385 1.325 1.325 0 0 0-.385.933c0 .733.585 1.318 1.318 1.318a1.314 1.314 0 0 0 1.221-1.824 1.292 1.292 0 0 0-.286-.428 1.329 1.329 0 0 0-.935-.383zM16 7.273c-4.8 0-8.727 3.927-8.727 8.727S11.2 24.727 16 24.727c4.8 0 8.727-3.927 8.727-8.727S20.8 7.273 16 7.273zm0 2.909c3.233 0 5.818 2.585 5.818 5.818S19.233 21.818 16 21.818c-3.233 0-5.818-2.585-5.818-5.818s2.585-5.818 5.818-5.818z"/></symbol><symbol id="icon-Icon_twitter" viewBox="0 0 41 32"><path d="M40.727 3.796a17.093 17.093 0 0 1-4.799 1.268A8.156 8.156 0 0 0 39.6.598a17.202 17.202 0 0 1-5.303 1.962C33.152 1.376 31.664.553 30.028.198s-3.345-.227-4.904.368c-1.559.596-2.897 1.631-3.84 2.972s-1.446 2.924-1.445 4.545c0 .635.073 1.25.221 1.839-3.323-.158-6.575-.991-9.543-2.445S4.931 3.981 2.834 1.483a7.808 7.808 0 0 0-1.132 4.063c0 2.8 1.471 5.273 3.718 6.722a8.52 8.52 0 0 1-3.784-1.014v.103c-.001 1.865.666 3.673 1.888 5.117s2.923 2.434 4.815 2.802a8.603 8.603 0 0 1-3.774.141c.534 1.605 1.572 3.008 2.971 4.015s3.088 1.565 4.831 1.598c-1.733 1.315-3.718 2.287-5.84 2.859s-4.34.735-6.528.479a24.219 24.219 0 0 0 12.807 3.633c15.371 0 23.778-12.308 23.778-22.983 0-.344-.014-.699-.027-1.045a16.803 16.803 0 0 0 4.169-4.174v-.002z"/></symbol><symbol id="icon-Icon_youtube" viewBox="0 0 41 32"><path d="M20.364 0C14.465 0 9.252.624 6.07 1.101A6.266 6.266 0 0 0 .832 6.2C.423 8.482 0 11.819 0 16s.423 7.52.832 9.8a6.262 6.262 0 0 0 5.238 5.101C9.266 31.375 14.496 32 20.364 32s11.1-.624 14.294-1.101a6.258 6.258 0 0 0 5.238-5.099c.409-2.288.832-5.632.832-9.8s-.417-7.512-.832-9.8a6.27 6.27 0 0 0-5.238-5.101C31.477.625 26.262 0 20.364 0zm0 3.2c5.691 0 10.776.594 13.854 1.05.64.093 1.234.39 1.7.848s.778 1.053.894 1.703c.379 2.112.783 5.243.783 9.2 0 3.95-.404 7.088-.783 9.2-.114.65-.426 1.247-.892 1.705s-1.062.754-1.702.845c-3.092.456-8.2 1.05-13.854 1.05-5.655 0-10.769-.594-13.854-1.05-.64-.093-1.235-.389-1.701-.847s-.778-1.054-.893-1.704c-.379-2.112-.783-5.237-.783-9.2 0-3.968.404-7.088.783-9.2.115-.65.427-1.246.893-1.704s1.061-.754 1.701-.847c3.072-.456 8.163-1.05 13.854-1.05zm-4.7 3.65v18.302l2.35-1.35 10.965-6.4L31.329 16l-2.35-1.4-10.965-6.4-2.35-1.35zm3.133 5.5L25.014 16l-6.217 3.65v-7.299z"/></symbol><symbol id="icon-Icon_arrow-left" viewBox="0 0 55 32"><path d="m15.73 1.123 3.118 3.186-9.484 9.477h44.425v4.429H9.364l9.482 9.479-3.115 3.184L.858 16 15.731 1.122z"/></symbol><symbol id="icon-Icon_arrow-right" viewBox="0 0 55 32"><path d="m38.916 1.122-3.118 3.186 9.484 9.477H.857v4.429h44.425L35.8 27.693l3.115 3.184 14.873-14.878L38.915 1.121z"/></symbol><symbol id="icon-send" viewBox="0 0 32 32"><path d="M32 0 0 18l10.227 3.787L26 7 14.003 23.187l.009.003-.012-.003V32l5.735-6.691L27.002 28l4.999-28z"/></symbol><symbol id="icon-linkedin" viewBox="0 0 32 32"><path d="M31.992 32v-.001H32V20.263c0-5.741-1.236-10.164-7.948-10.164-3.227 0-5.392 1.771-6.276 3.449h-.093v-2.913h-6.364v21.364h6.627V21.42c0-2.785.528-5.479 3.977-5.479 3.399 0 3.449 3.179 3.449 5.657v10.401h6.62zM.528 10.636h6.635V32H.528V10.636zM3.843 0C1.722 0 0 1.721 0 3.843s1.721 3.879 3.843 3.879c2.121 0 3.843-1.757 3.843-3.879A3.846 3.846 0 0 0 3.843 0z"/></symbol><symbol id="icon-envelope" viewBox="0 0 43 32"><path d="M38.667 0H4C1.794 0 0 1.794 0 4v24c0 2.206 1.794 4 4 4h34.667c2.206 0 4-1.794 4-4V4c0-2.206-1.794-4-4-4zm0 2.667c.181 0 .353.038.511.103L21.334 18.236 3.49 2.77a1.32 1.32 0 0 1 .511-.103h34.667zm0 26.666H4A1.334 1.334 0 0 1 2.667 28V5.587L20.46 21.008a1.335 1.335 0 0 0 1.748 0L40.001 5.587V28c0 .736-.598 1.333-1.333 1.333z"/></symbol><symbol id="icon-search" viewBox="0 0 32 32"><path d="m31.008 27.231-7.58-6.447c-.784-.705-1.622-1.029-2.299-.998a11.954 11.954 0 0 0 2.87-7.787c0-6.627-5.373-12-12-12s-12 5.373-12 12 5.373 12 12 12c2.972 0 5.691-1.081 7.787-2.87-.031.677.293 1.515.998 2.299l6.447 7.58c1.104 1.226 2.907 1.33 4.007.23s.997-2.903-.23-4.007zM12 20a8 8 0 1 1 0-16 8 8 0 0 1 0 16z"/></symbol><symbol id="icon-zoom-in" viewBox="0 0 32 32"><path d="m31.008 27.231-7.58-6.447c-.784-.705-1.622-1.029-2.299-.998a11.954 11.954 0 0 0 2.87-7.787c0-6.627-5.373-12-12-12s-12 5.373-12 12 5.373 12 12 12c2.972 0 5.691-1.081 7.787-2.87-.031.677.293 1.515.998 2.299l6.447 7.58c1.104 1.226 2.907 1.33 4.007.23s.997-2.903-.23-4.007zM12 20a8 8 0 1 1 0-16 8 8 0 0 1 0 16zm2-14h-4v4H6v4h4v4h4v-4h4v-4h-4z"/></symbol><symbol id="icon-zoom-out" viewBox="0 0 32 32"><path d="m31.008 27.231-7.58-6.447c-.784-.705-1.622-1.029-2.299-.998a11.954 11.954 0 0 0 2.87-7.787c0-6.627-5.373-12-12-12s-12 5.373-12 12 5.373 12 12 12c2.972 0 5.691-1.081 7.787-2.87-.031.677.293 1.515.998 2.299l6.447 7.58c1.104 1.226 2.907 1.33 4.007.23s.997-2.903-.23-4.007zM12 20a8 8 0 1 1 0-16 8 8 0 0 1 0 16zM6 10h12v4H6z"/></symbol><symbol id="icon-volume" viewBox="0 0 32 32"><path d="M22.485 25.985a1.5 1.5 0 0 1-1.061-2.56c4.094-4.094 4.094-10.755 0-14.849a1.5 1.5 0 1 1 2.121-2.121c2.55 2.55 3.954 5.94 3.954 9.546s-1.404 6.996-3.954 9.546a1.495 1.495 0 0 1-1.061.439zm-5.328-2.828a1.5 1.5 0 0 1-1.061-2.56 6.508 6.508 0 0 0 0-9.192 1.5 1.5 0 1 1 2.121-2.121c3.704 3.704 3.704 9.731 0 13.435a1.495 1.495 0 0 1-1.061.439zM13 30a1 1 0 0 1-.707-.293L4.586 22H1a1 1 0 0 1-1-1V11a1 1 0 0 1 1-1h3.586l7.707-7.707A1 1 0 0 1 14 3v26a1.002 1.002 0 0 1-1 1z"/></symbol><symbol id="icon-volume-mute2" viewBox="0 0 32 32"><path d="M30 19.348V22h-2.652L24 18.652 20.652 22H18v-2.652L21.348 16 18 12.652V10h2.652L24 13.348 27.348 10H30v2.652L26.652 16 30 19.348zM13 30a1 1 0 0 1-.707-.293L4.586 22H1a1 1 0 0 1-1-1V11a1 1 0 0 1 1-1h3.586l7.707-7.707A1 1 0 0 1 14 3v26a1.002 1.002 0 0 1-1 1z"/></symbol></defs></svg>